<svg width="64" height="27" viewBox="0 0 64 27" fill="none" xmlns="http://www.w3.org/2000/svg">
<path d="M14.2397 13.2672C14.2558 12.8105 14.2771 12.3731 14.3038 11.9542C14.3305 11.5352 14.3626 11.1086 14.4 10.6735C14.4244 10.3816 14.4518 10.0936 14.4823 9.8087C14.5129 9.52376 14.5449 9.25038 14.5769 8.98778C14.609 8.72595 14.6403 8.47875 14.6715 8.24619C14.7021 8.01362 14.7326 7.80416 14.7616 7.6178H16.456L17.6041 11.5121H17.656L18.7958 7.6178H20.4902C20.5489 8.00438 20.6107 8.44949 20.6748 8.95313C20.7389 9.45676 20.7976 10.0274 20.8518 10.665C20.8732 10.9246 20.8922 11.1679 20.9098 11.3966C20.9273 11.6246 20.9418 11.844 20.954 12.055C20.9662 12.266 20.9769 12.4701 20.9861 12.6688C20.9952 12.8675 21.0044 13.0669 21.012 13.2664H19.7677C19.7624 13.0823 19.7547 12.8736 19.7456 12.638C19.7364 12.4031 19.7242 12.1567 19.7097 11.8987C19.6952 11.6407 19.6777 11.3781 19.6579 11.1101C19.638 10.8429 19.6167 10.5849 19.5938 10.3362C19.5709 10.0875 19.5472 9.85567 19.5213 9.64158C19.4961 9.42673 19.4694 9.24114 19.4427 9.08404H19.3863L18.2061 13.1039H17.0541L15.8655 9.08404H15.809C15.7793 9.26809 15.7518 9.47217 15.7266 9.69626C15.7015 9.92036 15.677 10.1552 15.6542 10.4017C15.6313 10.6473 15.6107 10.8991 15.5916 11.1556C15.5725 11.412 15.5557 11.6646 15.5413 11.9133C15.5268 12.1621 15.5145 12.4016 15.5054 12.6326C15.4962 12.8636 15.4886 13.0754 15.4833 13.2672H14.2397Z" fill="white"/>
<path d="M27.4006 10.4501C27.3975 10.9252 27.3304 11.3449 27.1977 11.7084C27.0649 12.0719 26.8788 12.3753 26.64 12.6179C26.4004 12.8612 26.1143 13.0445 25.7825 13.1693C25.4506 13.2932 25.0837 13.3541 24.6824 13.3518C24.2651 13.3495 23.8851 13.284 23.5441 13.1569C23.2031 13.0299 22.9101 12.8435 22.6668 12.5979C22.4234 12.3522 22.2357 12.0496 22.1045 11.6899C21.9733 11.3303 21.9107 10.9175 21.9161 10.4501C21.9184 9.98033 21.9855 9.56372 22.1167 9.20178C22.2479 8.83984 22.4333 8.53488 22.6729 8.28769C22.9124 8.04049 23.2023 7.85259 23.5418 7.72475C23.8813 7.59615 24.262 7.53069 24.6816 7.52838C25.0913 7.52607 25.4628 7.59076 25.7977 7.72321C26.1326 7.85567 26.4187 8.04665 26.6568 8.29693C26.8948 8.54643 27.0786 8.8537 27.2091 9.21641C27.3396 9.57989 27.4029 9.99111 27.4006 10.4501ZM24.6786 8.53334C24.4138 8.53334 24.1842 8.5834 23.9904 8.68351C23.7966 8.78362 23.6341 8.9207 23.5044 9.09474C23.3748 9.26877 23.2771 9.47208 23.2115 9.70464C23.1459 9.93721 23.1116 10.1852 23.1093 10.4501C23.1039 10.7011 23.1337 10.9414 23.1978 11.1693C23.2618 11.3981 23.3587 11.5991 23.4892 11.7731C23.6189 11.9471 23.7837 12.0865 23.9828 12.1905C24.1819 12.2944 24.4154 12.3468 24.6831 12.3468C24.9242 12.3468 25.1393 12.2998 25.3293 12.2067C25.5193 12.1135 25.6795 11.9841 25.8092 11.8178C25.9389 11.6514 26.0388 11.452 26.1082 11.2202C26.1777 10.9876 26.2128 10.7312 26.2128 10.4501C26.2128 10.1829 26.1792 9.93259 26.112 9.70002C26.0449 9.46746 25.9465 9.26492 25.8168 9.09242C25.6871 8.91992 25.5269 8.78285 25.3369 8.68274C25.147 8.5834 24.9273 8.53334 24.6786 8.53334Z" fill="white"/>
<path d="M28.5337 13.2671V7.61389H29.8703C29.9878 7.75405 30.1121 7.92501 30.2418 8.12677C30.3715 8.32776 30.505 8.54647 30.6416 8.78134C30.7781 9.01622 30.9162 9.2588 31.0551 9.50908C31.1939 9.75858 31.3312 10.0012 31.4663 10.2345C31.6013 10.4686 31.7318 10.6865 31.8576 10.8891C31.9835 11.0916 32.101 11.2618 32.2109 11.3996H32.2589L32.2345 7.61466H33.4552V13.2679H32.146C32.0125 13.1115 31.8775 12.9306 31.7424 12.7273C31.6074 12.5232 31.4716 12.3076 31.3351 12.0812C31.1985 11.8548 31.0619 11.623 30.9254 11.3865C30.7888 11.1501 30.6553 10.9214 30.5241 10.6996C30.3929 10.4778 30.2647 10.2699 30.1388 10.0759C30.013 9.88103 29.8924 9.71238 29.7772 9.56914H29.7292L29.7536 13.2694H28.5337V13.2671Z" fill="white"/>
<path d="M34.9578 13.2671V7.61389H38.567L38.5632 8.62271H36.1784V9.928H38.21V10.876H36.1784V12.2621H38.6471V13.2671H34.9578Z" fill="white"/>
<path d="M40.0694 9.44118C39.9732 9.27099 39.8786 9.09772 39.7863 8.92214C39.694 8.74656 39.6078 8.57791 39.5277 8.41543C39.4476 8.25371 39.3751 8.10277 39.311 7.96338C39.2469 7.824 39.1958 7.70771 39.1584 7.61299L40.5233 7.57218C40.553 7.65304 40.5897 7.74545 40.6339 7.84941C40.6782 7.95337 40.7255 8.06272 40.7766 8.17747C40.8277 8.29221 40.8803 8.40849 40.9353 8.52632C40.9902 8.64414 41.0459 8.75657 41.1016 8.86439C41.1527 8.96989 41.2076 9.07924 41.2679 9.19244C41.3282 9.30565 41.3869 9.415 41.4449 9.51896C41.5021 9.62292 41.557 9.71841 41.6097 9.80466C41.6615 9.89091 41.7081 9.96022 41.7485 10.011H41.8088C41.8462 9.95714 41.8912 9.88783 41.9431 9.80235C41.9949 9.71764 42.0499 9.62369 42.1078 9.5205C42.1651 9.41808 42.2238 9.31104 42.2826 9.20014C42.3413 9.08925 42.3962 8.98144 42.4473 8.87594C42.5595 8.63798 42.6671 8.40618 42.7685 8.17901C42.87 7.95183 42.9547 7.7493 43.0218 7.57141L44.395 7.61223C44.2905 7.85788 44.1608 8.13665 44.006 8.447C43.8503 8.75734 43.6779 9.08617 43.4879 9.43194C43.4025 9.58827 43.3155 9.73766 43.227 9.87936C43.1385 10.0211 43.0493 10.1604 42.9577 10.2967C42.8669 10.4331 42.7739 10.5686 42.6785 10.7041C42.5831 10.8389 42.4863 10.9783 42.3871 11.1215V13.2654H41.1664V11.1215C41.0062 10.892 40.8277 10.634 40.6324 10.3476C40.4356 10.0626 40.2486 9.76 40.0694 9.44118Z" fill="white"/>
<path d="M44.6787 8.62271V7.61389H48.9746V8.62271H47.4374V13.2671H46.2167V8.62271H44.6787Z" fill="white"/>
<path d="M53.5118 13.6037C53.3539 13.455 53.1983 13.2918 53.0442 13.1131C52.89 12.9345 52.7428 12.7512 52.6024 12.5617C52.4621 12.3723 52.3301 12.1813 52.2073 11.988C52.0844 11.7947 51.9769 11.6091 51.8861 11.4305C51.8777 11.4328 51.867 11.4343 51.854 11.4343H51.1712V13.2664H49.9468V7.61316H52.0066C52.2713 7.61316 52.5292 7.64935 52.7794 7.7202C53.0297 7.79182 53.2517 7.9004 53.4462 8.04672C53.64 8.19226 53.7964 8.37555 53.9139 8.59579C54.0314 8.81604 54.0909 9.07324 54.0909 9.36742C54.0909 9.58381 54.0596 9.78019 53.9963 9.9573C53.9337 10.1344 53.8498 10.2931 53.7453 10.4332C53.6407 10.5741 53.521 10.6974 53.3859 10.8044C53.2509 10.9114 53.1113 11.0023 52.9663 11.0778C53.0495 11.2264 53.1441 11.3812 53.2517 11.5421C53.3585 11.7031 53.4752 11.8648 53.6011 12.0281C53.727 12.1913 53.8605 12.353 54.0024 12.5125C54.1443 12.6719 54.293 12.8243 54.4479 12.9707L53.5118 13.6037ZM51.1712 10.4625H51.9143C52.0669 10.4625 52.205 10.4378 52.3278 10.3878C52.4506 10.3377 52.5544 10.2692 52.6391 10.1814C52.723 10.0936 52.7878 9.99042 52.8336 9.87106C52.8794 9.75246 52.9023 9.6254 52.9023 9.48986C52.9023 9.33045 52.8748 9.19338 52.8199 9.07863C52.7649 8.96389 52.6925 8.86994 52.6032 8.79678C52.5132 8.72363 52.4117 8.67049 52.298 8.6366C52.1844 8.60272 52.0669 8.58578 51.9471 8.58578H51.172V10.4625H51.1712Z" fill="white"/>
<path d="M55.4236 13.2671V7.61389H59.0329L59.029 8.62271H56.6442V9.928H58.6758V10.876H56.6442V12.2621H59.113V13.2671H55.4236Z" fill="white"/>
<path d="M60.3105 13.2671V7.61389H63.9198L63.916 8.62271H61.5312V9.928H63.5628V10.876H61.5312V12.2621H63.9999V13.2671H60.3105Z" fill="white"/>
<path d="M27.978 19.2574V15.6488H29.2773C29.4878 15.6488 29.6763 15.6742 29.8433 15.725C30.0104 15.7759 30.1523 15.8521 30.2675 15.953C30.3827 16.0539 30.4712 16.1802 30.533 16.3303C30.5948 16.4813 30.6253 16.6561 30.6253 16.854C30.6253 17.0781 30.5887 17.2714 30.5162 17.4339C30.4437 17.5964 30.3446 17.7296 30.2187 17.8335C30.0928 17.9383 29.9463 18.0153 29.7777 18.0653C29.6091 18.1154 29.4291 18.14 29.2353 18.14H28.7585V19.2574H27.978ZM28.76 17.534H29.2216C29.3154 17.534 29.4016 17.5209 29.4802 17.4939C29.5588 17.467 29.6267 17.4269 29.6839 17.3738C29.7411 17.3207 29.7854 17.2537 29.8174 17.1743C29.8487 17.095 29.8647 17.0026 29.8647 16.8979C29.8647 16.7808 29.8479 16.6823 29.8136 16.6014C29.7793 16.5213 29.7327 16.4566 29.6724 16.4073C29.6129 16.3581 29.542 16.3226 29.4611 16.3011C29.3802 16.2795 29.2933 16.2687 29.201 16.2687H28.76V17.534Z" fill="white"/>
<path d="M35.507 17.4593C35.5054 17.7628 35.462 18.0307 35.3773 18.2625C35.2926 18.4943 35.1736 18.6884 35.021 18.8432C34.8684 18.9987 34.6853 19.1158 34.474 19.1951C34.2619 19.2744 34.0277 19.3129 33.7714 19.3114C33.5051 19.3099 33.2625 19.2683 33.0451 19.1874C32.8269 19.1066 32.6408 18.9872 32.4851 18.8301C32.3295 18.673 32.2097 18.4797 32.1266 18.2502C32.0426 18.0207 32.003 17.7566 32.006 17.4586C32.0075 17.1582 32.0503 16.8926 32.1342 16.6615C32.2181 16.4305 32.3364 16.2357 32.4889 16.0786C32.6415 15.9207 32.8269 15.8006 33.0436 15.719C33.2602 15.6373 33.5028 15.595 33.7714 15.5934C34.033 15.5919 34.2703 15.6327 34.4839 15.7174C34.6975 15.8021 34.8806 15.9238 35.0324 16.0832C35.1843 16.2426 35.3017 16.4382 35.3849 16.6708C35.4681 16.9033 35.5085 17.1659 35.507 17.4593ZM33.7691 16.2357C33.5997 16.2357 33.4532 16.268 33.3297 16.3312C33.2061 16.3951 33.1023 16.4829 33.0192 16.5938C32.936 16.7054 32.8742 16.8348 32.8322 16.9834C32.7903 17.1321 32.7689 17.2907 32.7666 17.4593C32.7628 17.6195 32.7819 17.7728 32.8231 17.9183C32.8643 18.0639 32.9261 18.1925 33.0092 18.3041C33.0924 18.4158 33.1969 18.5044 33.3243 18.5706C33.4517 18.6368 33.6005 18.6699 33.7714 18.6699C33.9255 18.6699 34.0628 18.6399 34.1841 18.5806C34.3054 18.5213 34.4076 18.4381 34.4908 18.3326C34.5739 18.2263 34.6373 18.0993 34.6815 17.9507C34.7258 17.802 34.7479 17.6388 34.7479 17.4593C34.7479 17.2884 34.7265 17.129 34.6838 16.9811C34.6411 16.8325 34.5785 16.7031 34.4954 16.593C34.4122 16.4829 34.3107 16.3959 34.1894 16.3319C34.0681 16.2672 33.9278 16.2357 33.7691 16.2357Z" fill="white"/>
<path d="M39.6865 15.6481C39.7071 15.7675 39.7322 15.9023 39.7635 16.0532C39.794 16.2041 39.8276 16.3636 39.865 16.5307C39.9016 16.6978 39.9405 16.868 39.9817 17.042C40.0229 17.2153 40.0649 17.3824 40.1076 17.5441C40.1503 17.705 40.1923 17.856 40.2342 17.9954C40.2762 18.1348 40.3159 18.2549 40.3532 18.355H40.399C40.4349 18.2449 40.47 18.1147 40.5043 17.9646C40.5386 17.8144 40.5714 17.655 40.6027 17.4863C40.6347 17.3169 40.6637 17.1436 40.6912 16.965C40.7187 16.7863 40.7431 16.6146 40.7652 16.449C40.7873 16.2835 40.8064 16.1294 40.8232 15.9862C40.8392 15.843 40.8514 15.7221 40.8606 15.6243L41.683 15.6505C41.6677 15.8245 41.6448 16.0147 41.6136 16.2211C41.583 16.4275 41.5464 16.64 41.5037 16.8603C41.461 17.0805 41.4137 17.3023 41.3626 17.5264C41.3114 17.7505 41.258 17.9676 41.2039 18.1771C41.1489 18.3866 41.094 18.5845 41.0383 18.7693C40.9826 18.9549 40.9292 19.1181 40.8781 19.2598H39.9123C39.8749 19.1682 39.836 19.0627 39.7971 18.9426C39.7574 18.8224 39.7185 18.6954 39.6788 18.5614C39.6399 18.4266 39.6018 18.2888 39.5652 18.1471C39.5285 18.0054 39.4942 17.8683 39.4629 17.7343C39.4316 17.6011 39.4034 17.4748 39.3782 17.357C39.3538 17.2391 39.3332 17.1359 39.318 17.0482H39.305C39.2882 17.1467 39.2676 17.2553 39.2432 17.3739C39.2196 17.4925 39.1921 17.6173 39.1608 17.7466C39.1303 17.876 39.0975 18.0085 39.0624 18.144C39.0273 18.2795 38.9907 18.4128 38.9518 18.5437C38.9136 18.6746 38.874 18.8009 38.8328 18.9225C38.7916 19.0442 38.7511 19.1567 38.7099 19.2598H37.7441C37.6999 19.1459 37.651 19.0026 37.5976 18.8294C37.545 18.6561 37.4908 18.4651 37.4359 18.258C37.381 18.05 37.3276 17.8313 37.2757 17.6011C37.2238 17.3708 37.175 17.1413 37.13 16.9119C37.085 16.6824 37.0453 16.4598 37.0117 16.2442C36.9781 16.0286 36.9537 15.8314 36.9385 15.652L37.7609 15.6258C37.7662 15.7259 37.7777 15.8507 37.7952 16.0008C37.8128 16.151 37.8341 16.3135 37.8593 16.4898C37.8837 16.6654 37.9119 16.8464 37.9425 17.032C37.973 17.2176 38.0043 17.3947 38.0363 17.5633C38.0676 17.7328 38.0996 17.8868 38.1309 18.0262C38.1622 18.1656 38.1919 18.2764 38.2194 18.3573H38.2652C38.3064 18.2572 38.3483 18.134 38.3918 17.9877C38.4353 17.8413 38.4795 17.6835 38.5238 17.5141C38.568 17.3446 38.6115 17.1706 38.6535 16.9912C38.6954 16.8117 38.7344 16.6385 38.7702 16.4714C38.8061 16.3043 38.8373 16.1495 38.8648 16.007C38.8923 15.8645 38.9144 15.7459 38.9312 15.6512H39.6865V15.6481Z" fill="white"/>
<path d="M43.3496 19.2574V15.6488H45.6536L45.6513 16.2934H44.1285V17.1266H45.4255V17.7319H44.1285V18.6167H45.7047V19.2582H43.3496V19.2574Z" fill="white"/>
<path d="M49.6642 19.4723C49.5635 19.3776 49.4635 19.2728 49.3659 19.1596C49.2675 19.0457 49.1736 18.9286 49.0844 18.8077C48.9943 18.6868 48.9104 18.5651 48.8318 18.4419C48.7533 18.3187 48.6846 18.2001 48.6266 18.0861C48.6213 18.0877 48.6144 18.0884 48.606 18.0884H48.1704V19.2574H47.3884V15.6488H48.7029C48.8723 15.6488 49.0363 15.6719 49.1965 15.7173C49.356 15.7628 49.4978 15.8321 49.6222 15.9253C49.7458 16.0184 49.8457 16.1355 49.9205 16.2757C49.9953 16.4166 50.0334 16.5806 50.0334 16.7685C50.0334 16.9064 50.0136 17.0319 49.9731 17.1451C49.9327 17.2583 49.8793 17.3592 49.8129 17.4493C49.7466 17.5394 49.6695 17.6179 49.5833 17.6857C49.4971 17.7534 49.4078 17.812 49.3155 17.8605C49.3682 17.9552 49.4292 18.0546 49.4971 18.157C49.5657 18.2594 49.6398 18.3634 49.7199 18.4673C49.8 18.572 49.8854 18.6745 49.9762 18.7761C50.067 18.8778 50.1616 18.9756 50.2607 19.0688L49.6642 19.4723ZM48.1696 17.467H48.6434C48.7411 17.467 48.8288 17.4508 48.9074 17.4192C48.9859 17.3877 49.0523 17.3438 49.1057 17.2875C49.1599 17.2313 49.2011 17.1659 49.2301 17.0896C49.2591 17.0134 49.2736 16.9325 49.2736 16.8463C49.2736 16.7446 49.256 16.6568 49.2209 16.5837C49.1858 16.5105 49.1401 16.4505 49.0828 16.4035C49.0256 16.3565 48.9608 16.3226 48.8883 16.3011C48.8158 16.2795 48.7411 16.2687 48.664 16.2687H48.1696V17.467Z" fill="white"/>
<path d="M26.5057 17.3864H14.2397V17.6797H26.5057V17.3864Z" fill="white"/>
<path d="M64.0001 17.3864H51.7341V17.6797H64.0001V17.3864Z" fill="white"/>
<path d="M8.04863 14.5831L5.35787 20.9933L4.02355 24.1676L2.83571 27L3.25607 24.1137L3.71457 20.9602L4.51181 15.4787L0 16.3251L1.64101 12.4176L4.38441 5.88115L4.52707 5.54385L6.85392 0L6.04143 5.5839L5.99337 5.91965L5.17782 11.5213L9.68963 10.6757L8.04863 14.5831Z" fill="#39CF87"/>
</svg>
