<svg width="104" height="44" viewBox="0 0 104 44" fill="none" xmlns="http://www.w3.org/2000/svg">
<path d="M23.1396 21.6204C23.1657 20.8762 23.2004 20.1634 23.2438 19.4807C23.2872 18.798 23.3392 18.1028 23.4 17.3937C23.4397 16.9181 23.4843 16.4487 23.5339 15.9844C23.5835 15.5201 23.6355 15.0746 23.6876 14.6466C23.7397 14.2199 23.7905 13.8171 23.8413 13.4381C23.8909 13.0591 23.9405 12.7178 23.9876 12.4141H26.741L28.6068 18.7604H28.6911L30.5432 12.4141H33.2966C33.3921 13.0441 33.4925 13.7694 33.5966 14.5902C33.7008 15.4109 33.7962 16.3408 33.8842 17.3799C33.919 17.8028 33.95 18.1994 33.9785 18.5721C34.007 18.9436 34.0305 19.3013 34.0504 19.6451C34.0702 19.989 34.0876 20.3215 34.1024 20.6453C34.1173 20.9691 34.1322 21.2941 34.1446 21.6192H32.1226C32.1139 21.3192 32.1015 20.9791 32.0867 20.5951C32.0718 20.2124 32.052 19.8108 32.0284 19.3904C32.0048 18.9699 31.9763 18.542 31.9441 18.1053C31.9119 17.6698 31.8772 17.2494 31.84 16.8441C31.8028 16.4387 31.7643 16.061 31.7222 15.7121C31.6813 15.362 31.6379 15.0595 31.5945 14.8035H31.5028L29.5849 21.3544H27.713L25.7815 14.8035H25.6897C25.6414 15.1034 25.5968 15.436 25.5559 15.8012C25.5149 16.1664 25.4753 16.5491 25.4381 16.9507C25.4009 17.3511 25.3674 17.7614 25.3364 18.1793C25.3054 18.5972 25.2782 19.0089 25.2546 19.4142C25.231 19.8196 25.2112 20.2098 25.1963 20.5863C25.1815 20.9628 25.1691 21.3079 25.1604 21.6204H23.1396Z" fill="black"/>
<path d="M44.5259 17.0296C44.5209 17.804 44.4118 18.4879 44.1961 19.0802C43.9804 19.6726 43.6779 20.167 43.2899 20.5623C42.9006 20.9589 42.4357 21.2576 41.8964 21.4609C41.3572 21.6629 40.7609 21.7621 40.1088 21.7583C39.4306 21.7545 38.8133 21.6479 38.2591 21.4408C37.7049 21.2337 37.2289 20.93 36.8334 20.5297C36.438 20.1294 36.133 19.6362 35.9198 19.0501C35.7065 18.4641 35.6049 17.7914 35.6135 17.0296C35.6173 16.2641 35.7264 15.5852 35.9396 14.9954C36.1528 14.4055 36.4541 13.9086 36.8433 13.5057C37.2326 13.1029 37.7037 12.7967 38.2554 12.5884C38.8071 12.3788 39.4257 12.2721 40.1075 12.2683C40.7733 12.2646 41.377 12.37 41.9212 12.5859C42.4655 12.8017 42.9304 13.1129 43.3172 13.5208C43.7039 13.9274 44.0027 14.4281 44.2147 15.0192C44.4267 15.6115 44.5296 16.2817 44.5259 17.0296ZM40.1026 13.9061C39.6724 13.9061 39.2992 13.9876 38.9843 14.1508C38.6695 14.3139 38.4054 14.5373 38.1946 14.8209C37.9839 15.1045 37.8252 15.4359 37.7186 15.8148C37.612 16.1938 37.5562 16.5979 37.5525 17.0296C37.5438 17.4388 37.5921 17.8303 37.6963 18.2018C37.8004 18.5745 37.9579 18.902 38.1698 19.1857C38.3806 19.4693 38.6484 19.6964 38.9719 19.8658C39.2955 20.0353 39.6749 20.1206 40.11 20.1206C40.5018 20.1206 40.8514 20.044 41.16 19.8922C41.4687 19.7403 41.7291 19.5295 41.9398 19.2584C42.1506 18.9874 42.313 18.6623 42.4258 18.2846C42.5386 17.9056 42.5956 17.4877 42.5956 17.0296C42.5956 16.5942 42.5411 16.1863 42.432 15.8073C42.3229 15.4283 42.163 15.0983 41.9522 14.8172C41.7415 14.536 41.4811 14.3127 41.1724 14.1495C40.8637 13.9876 40.5067 13.9061 40.1026 13.9061Z" fill="black"/>
<path d="M46.3672 21.6204V12.4078H48.5392C48.7301 12.6362 48.9322 12.9148 49.1429 13.2436C49.3537 13.5711 49.5706 13.9275 49.7925 14.3103C50.0144 14.6931 50.2388 15.0884 50.4644 15.4962C50.6901 15.9028 50.9132 16.2981 51.1326 16.6784C51.3521 17.0599 51.5641 17.415 51.7686 17.7451C51.9732 18.0752 52.1641 18.3525 52.3426 18.5771H52.4207L52.381 12.409H54.3646V21.6217H52.2372C52.0203 21.3669 51.8008 21.072 51.5814 20.7407C51.362 20.4081 51.1413 20.0567 50.9194 19.6878C50.6975 19.3188 50.4756 18.9411 50.2537 18.5558C50.0318 18.1705 49.8148 17.7978 49.6016 17.4364C49.3884 17.075 49.1801 16.7361 48.9755 16.4199C48.771 16.1024 48.5751 15.8275 48.3879 15.5941H48.3098L48.3495 21.6242H46.3672V21.6204Z" fill="black"/>
<path d="M56.8066 21.6204V12.4078H62.6717L62.6655 14.0518H58.7902V16.1789H62.0915V17.7238H58.7902V19.9827H62.8019V21.6204H56.8066Z" fill="black"/>
<path d="M65.1126 15.3858C64.9564 15.1084 64.8026 14.8261 64.6526 14.5399C64.5026 14.2538 64.3625 13.979 64.2324 13.7142C64.1022 13.4506 63.9844 13.2047 63.8803 12.9775C63.7761 12.7504 63.6931 12.5609 63.6323 12.4065L65.8502 12.34C65.8985 12.4718 65.9581 12.6224 66.03 12.7918C66.1019 12.9612 66.1787 13.1394 66.2618 13.3264C66.3449 13.5134 66.4304 13.7029 66.5196 13.8949C66.6089 14.0869 66.6994 14.2701 66.7899 14.4458C66.873 14.6177 66.9622 14.796 67.0602 14.9804C67.1581 15.1649 67.2536 15.3431 67.3478 15.5125C67.4408 15.6819 67.53 15.8376 67.6156 15.9781C67.6999 16.1187 67.7755 16.2316 67.8412 16.3144H67.9391C67.9999 16.2266 68.073 16.1137 68.1573 15.9744C68.2416 15.8363 68.3309 15.6832 68.4251 15.515C68.5181 15.3481 68.6135 15.1737 68.709 14.993C68.8045 14.8123 68.8937 14.6366 68.9768 14.4646C69.159 14.0769 69.3338 13.6991 69.4987 13.3289C69.6636 12.9587 69.8012 12.6286 69.9103 12.3387L72.1418 12.4053C71.972 12.8056 71.7612 13.2599 71.5095 13.7656C71.2566 14.2714 70.9765 14.8072 70.6678 15.3707C70.5289 15.6255 70.3876 15.8689 70.2438 16.0998C70.1 16.3308 69.9549 16.5579 69.8062 16.78C69.6586 17.0022 69.5074 17.223 69.3524 17.4439C69.1974 17.6635 69.04 17.8907 68.8788 18.1241V21.6179H66.8953V18.1241C66.6349 17.7501 66.3448 17.3297 66.0275 16.8629C65.7076 16.3985 65.4039 15.9053 65.1126 15.3858Z" fill="black"/>
<path d="M72.603 14.0518V12.4078H79.5839V14.0518H77.0858V21.6204H75.1023V14.0518H72.603Z" fill="black"/>
<path d="M86.9565 22.1689C86.6999 21.9267 86.447 21.6606 86.1966 21.3695C85.9462 21.0783 85.7069 20.7796 85.4788 20.4709C85.2507 20.1622 85.0362 19.851 84.8366 19.536C84.637 19.221 84.4622 18.9185 84.3147 18.6274C84.3011 18.6311 84.2837 18.6336 84.2626 18.6336H83.1531V21.6192H81.1633V12.4066H84.5106C84.9407 12.4066 85.3598 12.4655 85.7664 12.581C86.173 12.6977 86.5338 12.8747 86.8499 13.1131C87.1648 13.3503 87.4189 13.649 87.6099 14.0079C87.8008 14.3668 87.8975 14.786 87.8975 15.2653C87.8975 15.618 87.8466 15.938 87.7437 16.2266C87.6421 16.5153 87.5057 16.7738 87.3359 17.0022C87.166 17.2319 86.9714 17.4327 86.752 17.6071C86.5325 17.7815 86.3057 17.9296 86.0701 18.0526C86.2053 18.2948 86.359 18.5471 86.5338 18.8093C86.7073 19.0716 86.897 19.3352 87.1016 19.6012C87.3061 19.8673 87.5231 20.1308 87.7537 20.3906C87.9843 20.6504 88.226 20.8988 88.4777 21.1373L86.9565 22.1689ZM83.1531 17.0499H84.3606C84.6085 17.0499 84.8329 17.0097 85.0325 16.9282C85.2321 16.8466 85.4007 16.7349 85.5383 16.5918C85.6747 16.4488 85.78 16.2806 85.8544 16.0861C85.9288 15.8928 85.966 15.6858 85.966 15.4649C85.966 15.2051 85.9214 14.9817 85.8321 14.7947C85.7428 14.6077 85.6251 14.4546 85.48 14.3354C85.3337 14.2162 85.1689 14.1296 84.9841 14.0744C84.7994 14.0192 84.6085 13.9916 84.4139 13.9916H83.1543V17.0499H83.1531Z" fill="black"/>
<path d="M90.0635 21.6204V12.4078H95.9285L95.9224 14.0518H92.047V16.1789H95.3484V17.7238H92.047V19.9827H96.0587V21.6204H90.0635Z" fill="black"/>
<path d="M98.0049 21.6204V12.4078H103.87L103.864 14.0518H99.9884V16.1789H103.29V17.7238H99.9884V19.9827H104V21.6204H98.0049Z" fill="black"/>
<path d="M45.4644 31.3828V25.5021H47.5756C47.9178 25.5021 48.224 25.5435 48.4955 25.6263C48.767 25.7091 48.9976 25.8334 49.1848 25.9978C49.372 26.1622 49.5158 26.368 49.6162 26.6127C49.7166 26.8587 49.7662 27.1436 49.7662 27.4661C49.7662 27.8313 49.7067 28.1463 49.5889 28.4111C49.4711 28.6759 49.31 28.893 49.1054 29.0624C48.9009 29.2331 48.6628 29.3586 48.3889 29.4401C48.1149 29.5217 47.8223 29.5619 47.5074 29.5619H46.7326V31.3828H45.4644ZM46.7351 28.5742H47.4851C47.6376 28.5742 47.7777 28.5529 47.9054 28.509C48.0331 28.465 48.1434 28.3998 48.2364 28.3132C48.3294 28.2266 48.4013 28.1174 48.4533 27.9881C48.5042 27.8589 48.5302 27.7083 48.5302 27.5376C48.5302 27.3469 48.5029 27.1862 48.4471 27.0545C48.3914 26.9239 48.3157 26.8185 48.2178 26.7382C48.1211 26.6579 48.0058 26.6002 47.8744 26.565C47.743 26.5299 47.6016 26.5123 47.4516 26.5123H46.7351V28.5742Z" fill="black"/>
<path d="M57.6991 28.4524C57.6966 28.9468 57.6259 29.3836 57.4883 29.7613C57.3507 30.139 57.1573 30.4553 56.9094 30.7075C56.6614 30.961 56.3639 31.1518 56.0205 31.2811C55.6759 31.4103 55.2953 31.4731 54.8787 31.4706C54.4461 31.468 54.0518 31.4003 53.6985 31.2685C53.344 31.1367 53.0415 30.9422 52.7886 30.6862C52.5357 30.4302 52.341 30.1152 52.2059 29.7412C52.0695 29.3672 52.0051 28.9368 52.01 28.4511C52.0125 27.9617 52.0819 27.5287 52.2183 27.1523C52.3547 26.7758 52.5468 26.4583 52.7948 26.2022C53.0427 25.945 53.344 25.7492 53.696 25.6162C54.0481 25.4832 54.4423 25.4141 54.8787 25.4116C55.3039 25.4091 55.6895 25.4756 56.0366 25.6137C56.3837 25.7517 56.6813 25.95 56.928 26.2098C57.1747 26.4696 57.3656 26.7883 57.5007 27.1673C57.6359 27.5463 57.7016 27.9742 57.6991 28.4524ZM54.875 26.4583C54.5998 26.4583 54.3618 26.511 54.1609 26.6139C53.9601 26.718 53.7915 26.8611 53.6564 27.0418C53.5212 27.2238 53.4208 27.4346 53.3526 27.6768C53.2845 27.919 53.2497 28.1775 53.246 28.4524C53.2398 28.7134 53.2708 28.9632 53.3378 29.2003C53.4047 29.4375 53.5051 29.6471 53.6403 29.8291C53.7754 30.011 53.9452 30.1554 54.1523 30.2633C54.3593 30.3712 54.601 30.4252 54.8787 30.4252C55.1291 30.4252 55.3523 30.3762 55.5494 30.2796C55.7465 30.183 55.9127 30.0474 56.0478 29.8755C56.1829 29.7023 56.2858 29.4953 56.3577 29.253C56.4296 29.0108 56.4656 28.7448 56.4656 28.4524C56.4656 28.1738 56.4308 27.914 56.3614 27.6731C56.292 27.4308 56.1903 27.22 56.0552 27.0406C55.9201 26.8611 55.7552 26.7193 55.5581 26.6151C55.361 26.5097 55.1329 26.4583 54.875 26.4583Z" fill="black"/>
<path d="M64.4904 25.5007C64.5239 25.6952 64.5648 25.9148 64.6156 26.1608C64.6652 26.4068 64.7197 26.6666 64.7805 26.9389C64.84 27.2112 64.9032 27.4885 64.9701 27.7722C65.0371 28.0545 65.1053 28.3269 65.1747 28.5904C65.2441 28.8527 65.3123 29.0987 65.3805 29.3258C65.4487 29.5529 65.5131 29.7487 65.5739 29.9119H65.6483C65.7065 29.7324 65.7636 29.5203 65.8194 29.2756C65.8751 29.0309 65.9285 28.7711 65.9793 28.4963C66.0314 28.2202 66.0785 27.9378 66.1231 27.6467C66.1677 27.3555 66.2074 27.0757 66.2433 26.8059C66.2793 26.536 66.3103 26.285 66.3376 26.0516C66.3636 25.8182 66.3834 25.6212 66.3983 25.4618L67.7347 25.5045C67.7099 25.7881 67.6727 26.0981 67.6219 26.4344C67.5723 26.7707 67.5128 27.1171 67.4434 27.476C67.374 27.8349 67.2971 28.1963 67.214 28.5615C67.131 28.9267 67.0442 29.2806 66.9562 29.622C66.8669 29.9633 66.7777 30.2858 66.6872 30.587C66.5967 30.8895 66.5099 31.1555 66.4268 31.3864H64.8573C64.7966 31.2371 64.7334 31.0652 64.6701 30.8694C64.6057 30.6736 64.5424 30.4666 64.478 30.2482C64.4148 30.0286 64.3528 29.8039 64.2933 29.573C64.2338 29.3421 64.178 29.1187 64.1271 28.9004C64.0763 28.6833 64.0304 28.4774 63.9895 28.2854C63.9499 28.0934 63.9164 27.9253 63.8916 27.7822H63.8705C63.8432 27.9428 63.8098 28.1198 63.7701 28.3131C63.7317 28.5063 63.687 28.7096 63.6362 28.9204C63.5866 29.1313 63.5333 29.3471 63.4763 29.568C63.4193 29.7889 63.3598 30.006 63.2965 30.2193C63.2345 30.4327 63.1701 30.6385 63.1031 30.8368C63.0362 31.035 62.9705 31.2183 62.9035 31.3864H61.3341C61.2622 31.2007 61.1828 30.9673 61.096 30.6849C61.0105 30.4025 60.9225 30.0913 60.8332 29.7537C60.7439 29.4149 60.6572 29.0585 60.5729 28.6833C60.4886 28.308 60.4092 27.9341 60.3361 27.5601C60.2629 27.1861 60.1985 26.8234 60.1439 26.472C60.0894 26.1206 60.0497 25.7994 60.0249 25.507L61.3613 25.4643C61.37 25.6274 61.3886 25.8308 61.4171 26.0755C61.4456 26.3202 61.4803 26.585 61.5213 26.8724C61.5609 27.1585 61.6068 27.4534 61.6564 27.7559C61.706 28.0583 61.7568 28.3469 61.8089 28.6218C61.8597 28.8979 61.9118 29.1488 61.9626 29.376C62.0134 29.6031 62.0618 29.7839 62.1064 29.9156H62.1808C62.2477 29.7525 62.3159 29.5517 62.3866 29.3132C62.4572 29.0748 62.5291 28.8175 62.601 28.5415C62.6729 28.2654 62.7436 27.9817 62.8118 27.6893C62.88 27.3969 62.9432 27.1146 63.0015 26.8422C63.0597 26.5699 63.1106 26.3177 63.1552 26.0855C63.1998 25.8533 63.2358 25.6601 63.2631 25.5057H64.4904V25.5007Z" fill="black"/>
<path d="M70.4434 31.3828V25.5021H74.1873L74.1836 26.5525H71.7091V27.9103H73.8167V28.8967H71.7091V30.3387H74.2704V31.3841H70.4434V31.3828Z" fill="black"/>
<path d="M80.7044 31.7329C80.5408 31.5786 80.3784 31.4079 80.2197 31.2234C80.0598 31.0377 79.9073 30.8469 79.7622 30.6499C79.6159 30.4529 79.4796 30.2546 79.3519 30.0538C79.2242 29.853 79.1126 29.6597 79.0184 29.474C79.0097 29.4765 78.9986 29.4778 78.9849 29.4778H78.2771V31.3828H77.0063V25.5021H79.1424C79.4176 25.5021 79.6841 25.5397 79.9445 25.6138C80.2036 25.6878 80.4342 25.8008 80.6362 25.9526C80.8371 26.1045 80.9995 26.2952 81.121 26.5236C81.2425 26.7533 81.3044 27.0206 81.3044 27.3268C81.3044 27.5514 81.2722 27.756 81.2065 27.9405C81.1408 28.1249 81.054 28.2893 80.9462 28.4362C80.8383 28.583 80.7131 28.711 80.573 28.8214C80.4329 28.9319 80.2879 29.0272 80.1379 29.1063C80.2234 29.2607 80.3226 29.4226 80.4329 29.5895C80.5445 29.7564 80.6648 29.9258 80.7949 30.0952C80.9251 30.2659 81.0639 30.4328 81.2115 30.5984C81.359 30.7641 81.5127 30.9235 81.6739 31.0753L80.7044 31.7329ZM78.2758 28.465H79.0457C79.2044 28.465 79.3469 28.4387 79.4746 28.3872C79.6023 28.3358 79.7102 28.2642 79.7969 28.1726C79.885 28.081 79.9519 27.9743 79.999 27.8501C80.0461 27.7259 80.0697 27.5941 80.0697 27.4535C80.0697 27.2879 80.0412 27.1448 79.9841 27.0256C79.9271 26.9064 79.8527 26.8085 79.7598 26.7319C79.6668 26.6554 79.5614 26.6002 79.4436 26.565C79.3259 26.5299 79.2044 26.5123 79.0792 26.5123H78.2758V28.465Z" fill="black"/>
<path d="M43.0718 28.3332H23.1396V28.8126H43.0718V28.3332Z" fill="black"/>
<path d="M104 28.3332H84.0679V28.8126H104V28.3332Z" fill="black"/>
<path d="M13.079 23.7651L8.70655 34.2113L6.53828 39.3843L4.60803 44L5.29112 39.2964L6.03619 34.1574L7.3317 25.2246L0 26.6038L2.66664 20.2362L7.12467 9.5841L7.35649 9.03442L11.1376 0L9.81733 9.09968L9.73923 9.64684L8.41397 18.7754L15.7457 17.3974L13.079 23.7651Z" fill="#39CF87"/>
</svg>
