<svg width="24" height="24" viewBox="0 0 24 24" fill="none" xmlns="http://www.w3.org/2000/svg">
<path d="M5.99991 22.4997C5.60207 22.4997 5.22052 22.3417 4.93921 22.0604C4.65789 21.7791 4.49985 21.3976 4.49985 20.9999C4.49985 20.6021 4.65789 20.2206 4.93921 19.9393C5.22052 19.658 5.60207 19.5 5.99991 19.5C6.39775 19.5 6.77929 19.658 7.06061 19.9393C7.34193 20.2206 7.49997 20.6021 7.49997 20.9999C7.49997 21.3976 7.34193 21.7791 7.06061 22.0604C6.77929 22.3417 6.39775 22.4997 5.99991 22.4997ZM5.99991 23.9995C6.79559 23.9995 7.55868 23.6835 8.12131 23.1209C8.68394 22.5584 9.00003 21.7954 9.00003 20.9999C9.00003 20.2043 8.68394 19.4413 8.12131 18.8788C7.55868 18.3162 6.79559 18.0002 5.99991 18.0002C5.20423 18.0002 4.44114 18.3162 3.8785 18.8788C3.31587 19.4413 2.99979 20.2043 2.99979 20.9999C2.99979 21.7954 3.31587 22.5584 3.8785 23.1209C4.44114 23.6835 5.20423 23.9995 5.99991 23.9995ZM18.0004 22.4997C17.6025 22.4997 17.221 22.3417 16.9397 22.0604C16.6584 21.7791 16.5003 21.3976 16.5003 20.9999C16.5003 20.6021 16.6584 20.2206 16.9397 19.9393C17.221 19.658 17.6025 19.5 18.0004 19.5C18.3982 19.5 18.7798 19.658 19.0611 19.9393C19.3424 20.2206 19.5004 20.6021 19.5004 20.9999C19.5004 21.3976 19.3424 21.7791 19.0611 22.0604C18.7798 22.3417 18.3982 22.4997 18.0004 22.4997ZM18.0004 23.9995C18.7961 23.9995 19.5592 23.6835 20.1218 23.1209C20.6844 22.5584 21.0005 21.7954 21.0005 20.9999C21.0005 20.2043 20.6844 19.4413 20.1218 18.8788C19.5592 18.3162 18.7961 18.0002 18.0004 18.0002C17.2047 18.0002 16.4416 18.3162 15.879 18.8788C15.3163 19.4413 15.0003 20.2043 15.0003 20.9999C15.0003 21.7954 15.3163 22.5584 15.879 23.1209C16.4416 23.6835 17.2047 23.9995 18.0004 23.9995ZM0.17218 4.77168C0.242699 4.68703 0.331008 4.61895 0.430825 4.57229C0.530642 4.52563 0.639515 4.50153 0.749702 4.50171H23.2506C23.3607 4.50181 23.4695 4.52616 23.5691 4.57303C23.6688 4.6199 23.7569 4.68813 23.8272 4.77289C23.8975 4.85764 23.9483 4.95684 23.9759 5.06342C24.0036 5.17001 24.0074 5.28138 23.9871 5.38961L21.737 17.3883C21.7049 17.5601 21.6136 17.7153 21.4792 17.8271C21.3447 17.9388 21.1754 18 21.0005 18.0002H2.99979C2.82493 18 2.65562 17.9388 2.52114 17.8271C2.38665 17.7153 2.29544 17.5601 2.26326 17.3883L0.0131733 5.38961C-0.00716926 5.28149 -0.00346974 5.17022 0.0240095 5.06369C0.0514888 4.95716 0.102075 4.85798 0.17218 4.77318V4.77168ZM1.65274 6.00154L3.62232 16.5004H20.378L22.3475 6.00154H1.65274Z" fill="#10B981"/>
<path fill-rule="evenodd" clip-rule="evenodd" d="M9.00018 1.5022C9.34912 1.03598 9.80195 0.657496 10.3227 0.396799C10.8435 0.136102 11.4179 0.000366211 12.0003 0.000366211C12.5827 0.000366211 13.1571 0.136102 13.6779 0.396799C14.1986 0.657496 14.6515 1.03598 15.0004 1.5022C16.2275 1.5022 17.318 2.09313 18.0005 3.00203C19.0056 3.00203 20.3286 3.85694 21.0006 4.50186H18.0005C17.5295 4.50186 17.084 4.27689 16.8005 3.90193C16.3895 3.35449 15.7354 3.00203 15.0004 3.00203C14.5294 3.00203 14.0839 2.77706 13.8004 2.4021C13.5913 2.12188 13.3198 1.89433 13.0072 1.73757C12.6947 1.58082 12.3499 1.49919 12.0003 1.49919C11.6507 1.49919 11.3059 1.58082 10.9934 1.73757C10.6808 1.89433 10.4093 2.12188 10.2002 2.4021C9.91671 2.77706 9.4712 3.00203 9.00018 3.00203C8.23965 3.00203 7.56762 3.37849 7.1581 3.95893C7.0231 4.1539 6.86709 4.33388 6.69609 4.50186H4.5C4.69501 4.28139 5.10152 3.85394 5.34303 3.68446C5.57184 3.52317 5.77125 3.3238 5.93256 3.09502C6.27842 2.60279 6.73775 2.20107 7.2717 1.92382C7.80565 1.64657 8.39852 1.50196 9.00018 1.5022Z" fill="#10B981"/>
</svg>
