<svg width="24" height="24" viewBox="0 0 24 24" fill="none" xmlns="http://www.w3.org/2000/svg">
<path fill-rule="evenodd" clip-rule="evenodd" d="M12 0C12.2508 0 12.4849 0.125326 12.624 0.333975L17.124 7.08397C17.2775 7.31412 17.2918 7.61003 17.1613 7.85389C17.0307 8.09776 16.7766 8.25 16.5 8.25H16.3532L19.386 13.1025C19.5305 13.3337 19.5382 13.6251 19.406 13.8636C19.2738 14.102 19.0226 14.25 18.75 14.25H18.4635L20.9208 19.1646C21.0371 19.3971 21.0246 19.6732 20.888 19.8943C20.7513 20.1154 20.5099 20.25 20.25 20.25H3.75C3.49007 20.25 3.24867 20.1154 3.11201 19.8943C2.97536 19.6732 2.96293 19.3971 3.07918 19.1646L5.53647 14.25H5.25C4.97736 14.25 4.72619 14.102 4.59402 13.8636C4.46185 13.6251 4.4695 13.3337 4.614 13.1025L7.64681 8.25H7.5C7.2234 8.25 6.96926 8.09776 6.83874 7.85389C6.70823 7.61003 6.72253 7.31412 6.87596 7.08397L11.376 0.333975C11.5151 0.125326 11.7492 0 12 0ZM8.90139 6.75H9C9.27264 6.75 9.52381 6.89796 9.65598 7.13642C9.78815 7.37489 9.7805 7.6663 9.636 7.8975L6.60319 12.75H6.75C7.00993 12.75 7.25133 12.8846 7.38799 13.1057C7.52464 13.3268 7.53707 13.6029 7.42082 13.8354L4.96353 18.75H19.0365L16.5792 13.8354C16.4629 13.6029 16.4754 13.3268 16.612 13.1057C16.7487 12.8846 16.9901 12.75 17.25 12.75H17.3968L14.364 7.8975C14.2195 7.6663 14.2118 7.37489 14.344 7.13642C14.4762 6.89796 14.7274 6.75 15 6.75H15.0986L12 2.10208L8.90139 6.75Z" fill="#10B981"/>
<path d="M10.5 20.25H13.5L13.5 24H10.5L10.5 20.25Z" fill="#10B981"/>
</svg>
